<?xml version="1.0" standalone="no"?>
<!DOCTYPE svg PUBLIC "-//W3C//DTD SVG 1.1//EN" "http://www.w3.org/Graphics/SVG/1.1/DTD/svg11.dtd" >
<svg xmlns="http://www.w3.org/2000/svg" xmlns:xlink="http://www.w3.org/1999/xlink" version="1.1" viewBox="0 -293 1024 1024">
  <g transform="matrix(1 0 0 -1 0 819)">
   <path fill="currentColor"
d="M48 0c-12 0 -18 13 -18 26c0 12 6 25 20 25l190 -2l188 451c-44 20 -106 64 -106 125s50 107 110 107c62 0 120 -55 120 -129c0 -16 -2 -33 -8 -50l-34 -84l80 -132l122 342c6 17 18 25 30 25s22 -10 22 -27c0 -4 0 -9 -2 -14l-140 -379l150 -245c4 -6 4 -12 4 -17
c0 -14 -14 -22 -36 -22h-224l-74 -203c-32 -68 -64 -90 -128 -90c-72 0 -142 35 -142 128v11c0 21 4 45 12 71l36 83h-172zM442 533l26 64c4 12 6 22 6 31c0 42 -32 56 -56 56c-30 0 -50 -28 -50 -59c0 -45 40 -75 74 -92zM470 0h-152l-60 -121c-14 -36 -14 -47 -14 -70
c0 -33 40 -61 72 -61s66 18 82 55zM494 434l-156 -386l148 -2l90 251zM606 243l-72 -198l190 -2z" />
  </g>

</svg>
